<?xml version="1.0" standalone="no"?>
<!DOCTYPE svg PUBLIC "-//W3C//DTD SVG 20010904//EN"
 "http://www.w3.org/TR/2001/REC-SVG-20010904/DTD/svg10.dtd">
<svg version="1.0" xmlns="http://www.w3.org/2000/svg"
 width="295.000000pt" height="295.000000pt" viewBox="0 0 295.000000 295.000000"
 preserveAspectRatio="xMidYMid meet">
<metadata>
Created by potrace 1.14, written by Peter Selinger 2001-2017
</metadata>
<g transform="translate(0.000000,295.000000) scale(0.100000,-0.100000)"
fill="#000000" stroke="none">
<path d="M1713 2823 c-18 -7 -16 -20 4 -27 15 -6 32 8 33 27 0 8 -18 8 -37 0z"/>
<path d="M1585 2700 c-114 -69 -218 -171 -291 -285 -10 -16 -31 -41 -45 -55
-15 -14 -30 -35 -33 -47 -4 -12 -18 -31 -31 -41 -29 -23 -54 -95 -50 -147 3
-31 -2 -48 -24 -75 -36 -46 -101 -155 -101 -168 0 -28 -90 -37 -132 -13 -44
24 -219 343 -233 425 -7 38 -9 61 -13 127 -3 34 -75 106 -132 131 -93 42 -160
50 -306 39 -10 -1 -22 -10 -70 -50 -17 -14 -26 -94 -15 -123 10 -27 175 -191
346 -343 61 -54 115 -105 121 -112 9 -11 5 -25 -22 -64 -33 -49 -33 -52 -18
-81 8 -16 30 -36 48 -43 18 -8 38 -21 46 -29 7 -9 18 -16 26 -16 30 0 67 -81
70 -155 1 -22 6 -53 12 -70 15 -42 44 -170 49 -213 5 -43 5 -39 -2 -122 -2
-36 -6 -87 -8 -115 -4 -49 23 -211 42 -250 5 -11 12 -28 15 -37 8 -26 53 -23
68 5 8 14 13 71 14 162 2 149 15 222 60 322 13 31 26 65 28 77 2 11 11 44 19
71 31 102 59 201 63 224 3 14 11 36 19 50 8 14 21 43 31 63 18 41 78 105 106
114 10 3 18 9 18 14 0 4 14 21 30 37 17 15 30 33 30 38 0 6 9 29 20 50 15 29
21 65 24 130 4 102 21 164 60 221 14 21 26 43 26 47 0 25 99 151 152 194 108
86 140 120 136 145 -6 42 -45 34 -153 -32z"/>
<path d="M2059 1556 c-3 -3 -50 -15 -103 -26 -142 -29 -146 -30 -206 -36 -71
-7 -74 -7 -145 -28 -101 -30 -153 -76 -158 -144 -1 -12 -14 -36 -29 -54 -51
-60 -63 -96 -65 -196 -1 -54 3 -104 10 -119 27 -60 111 -133 207 -179 19 -10
64 -32 100 -49 55 -28 119 -50 320 -113 35 -12 135 -17 275 -16 120 1 221 20
255 48 8 7 35 24 60 38 59 34 145 122 171 175 11 24 24 45 29 48 4 3 6 15 3
26 -5 18 -11 21 -45 16 -22 -3 -50 -14 -61 -25 -12 -11 -43 -23 -69 -27 -32
-5 -68 -21 -110 -51 -125 -86 -137 -91 -263 -112 -154 -26 -270 -21 -361 13
-122 46 -257 145 -269 198 -29 131 -28 160 11 244 14 28 44 70 67 92 61 60
117 83 232 97 28 3 75 10 106 15 54 9 130 6 150 -7 13 -8 165 -26 223 -27 35
0 52 4 61 17 7 9 25 20 40 24 l27 8 -27 32 c-31 37 -97 79 -136 85 -14 3 -46
12 -70 19 -43 14 -219 25 -230 14z"/>
<path d="M139 553 c-23 -4 -26 -9 -26 -41 0 -41 -14 -184 -18 -192 -2 -3 -7
-33 -10 -65 -8 -63 -1 -75 8 -15 3 19 10 49 16 65 10 27 42 191 44 223 1 27
74 3 78 -26 0 -4 3 -20 5 -36 7 -41 -21 -80 -52 -72 -14 4 -24 2 -24 -4 0 -17
56 -11 73 8 24 26 32 77 17 112 -19 46 -40 54 -111 43z"/>
<path d="M1573 469 c-18 -5 -33 -13 -34 -17 0 -4 -2 -15 -4 -24 -4 -23 14 -23
30 -1 13 17 14 17 32 0 27 -23 50 -21 63 6 11 22 11 22 -5 2 -16 -20 -16 -20
-36 4 -10 12 -16 27 -13 32 3 5 4 9 2 8 -2 0 -18 -5 -35 -10z"/>
<path d="M2412 469 c-26 -10 -27 -42 -1 -47 11 -2 18 6 22 25 6 34 7 33 -21
22z"/>
<path d="M1881 364 c-25 -32 -18 -51 25 -69 33 -14 53 -39 41 -52 -4 -3 -18
-7 -32 -9 -19 -2 -28 3 -34 18 -6 17 -9 18 -14 6 -7 -21 34 -42 67 -34 13 3
28 16 32 28 5 17 -2 28 -31 54 l-38 33 29 7 c42 10 46 14 33 30 -18 22 -56 17
-78 -12z"/>
<path d="M2397 378 c-2 -7 0 -30 5 -50 4 -20 10 -58 14 -85 9 -75 13 -64 12
29 0 47 2 90 6 96 3 5 -1 13 -10 16 -21 8 -22 8 -27 -6z"/>
<path d="M2489 383 c-1 -5 -1 -12 0 -16 1 -4 4 -40 7 -80 3 -40 10 -76 15 -81
5 -6 9 -8 10 -5 0 2 2 28 4 57 5 96 59 120 71 31 4 -27 11 -52 16 -55 6 -4 7
6 3 26 -4 18 -8 38 -10 44 -12 61 -17 68 -45 62 -19 -3 -30 -1 -34 9 -6 15
-35 21 -37 8z"/>
<path d="M861 361 c-32 -24 -19 -45 23 -37 17 3 37 2 45 -3 10 -6 4 -12 -23
-22 -36 -13 -56 -45 -41 -68 9 -16 47 -13 73 5 13 9 22 11 22 4 0 -6 4 -9 9
-6 5 4 3 31 -6 64 -20 81 -53 101 -102 63z m79 -84 c0 -17 -47 -43 -57 -33 -8
8 32 46 48 46 5 0 9 -6 9 -13z"/>
<path d="M1242 364 c-12 -8 -22 -22 -22 -30 0 -13 8 -14 38 -10 43 7 75 -6 45
-19 -10 -4 -24 -9 -32 -11 -33 -7 -38 -49 -8 -68 13 -8 24 -7 46 5 22 13 32
14 41 5 9 -8 11 -6 5 11 -6 21 -13 55 -19 92 -3 17 -35 41 -56 41 -8 0 -26 -7
-38 -16z m78 -83 c0 -12 -29 -41 -40 -41 -13 0 -20 15 -12 26 12 19 52 30 52
15z"/>
<path d="M297 363 c-7 -14 5 -153 14 -153 13 0 19 17 24 62 3 30 12 50 30 66
27 23 18 30 -15 12 -13 -7 -19 -6 -24 5 -6 16 -22 20 -29 8z"/>
<path d="M420 349 c-6 -11 -12 -34 -12 -51 -2 -56 70 -90 104 -50 31 36 29 50
-16 87 -50 41 -61 43 -76 14z m88 -73 c-4 -28 -43 -34 -57 -8 -8 14 -7 30 1
53 l11 32 24 -27 c13 -16 23 -38 21 -50z"/>
<path d="M590 348 c-42 -45 -14 -119 45 -117 19 0 19 1 -2 11 -33 16 -35 36
-7 65 34 34 40 22 39 -71 0 -58 -5 -79 -19 -95 -23 -25 -43 -27 -68 -4 -20 18
-25 4 -6 -15 13 -13 57 -16 74 -4 28 18 41 69 41 157 l1 91 -39 1 c-29 2 -45
-4 -59 -19z"/>
<path d="M737 363 c-7 -14 5 -153 14 -153 12 0 17 11 24 60 4 30 14 53 31 68
17 15 20 22 10 22 -8 0 -18 -4 -21 -10 -9 -15 -25 -12 -25 5 0 15 -26 21 -33
8z"/>
<path d="M1009 358 c-1 -7 0 -17 1 -23 2 -5 5 -32 7 -60 8 -79 30 -90 39 -19
5 40 30 78 45 68 5 -3 9 -29 9 -57 0 -36 3 -47 9 -37 6 8 8 17 5 21 -7 12 18
69 31 69 19 0 34 -23 37 -57 1 -18 5 -30 8 -28 4 2 2 29 -3 59 -11 58 -34 79
-62 56 -10 -8 -15 -8 -20 0 -4 7 -18 9 -30 6 -13 -3 -27 -2 -30 4 -9 14 -45
12 -46 -2z"/>
<path d="M1435 363 c-31 -7 -45 -33 -45 -80 0 -33 6 -48 24 -64 14 -12 22 -28
19 -38 -3 -12 2 -20 16 -24 30 -7 26 -34 -6 -45 l-28 -10 26 -1 c25 -1 59 25
59 45 0 6 -12 21 -27 34 l-26 23 24 13 c23 13 23 13 -8 8 -41 -8 -56 16 -39
66 10 30 15 35 43 35 39 0 50 10 33 30 -12 15 -27 17 -65 8z"/>
<path d="M1562 362 c-7 -5 -17 -24 -22 -43 -8 -28 -7 -38 9 -59 32 -44 92 -39
109 9 9 25 7 32 -12 50 -31 29 -42 26 -17 -5 24 -30 14 -64 -18 -64 -37 0 -45
27 -24 80 15 36 4 50 -25 32z"/>
<path d="M1719 357 c-36 -28 -31 -76 12 -116 27 -25 62 -27 80 -4 13 15 12 15
-8 5 -25 -14 -50 -7 -63 19 -14 25 -13 29 8 29 36 0 92 21 92 35 0 18 -51 45
-82 45 -13 0 -30 -6 -39 -13z m66 -17 c4 -6 -5 -10 -19 -10 -14 0 -26 5 -26
10 0 6 9 10 19 10 11 0 23 -4 26 -10z"/>
<path d="M2705 363 c-35 -9 -45 -24 -45 -74 0 -70 38 -99 85 -66 16 13 15 14
-13 9 -22 -3 -33 1 -40 15 -14 26 11 85 35 83 36 -4 53 0 53 14 0 22 -30 30
-75 19z"/>
<path d="M2160 230 c-10 -18 -9 -22 9 -27 26 -7 26 -16 4 -51 -16 -24 -16 -26
-1 -14 18 15 34 56 34 87 -1 27 -32 31 -46 5z"/>
</g>
</svg>
